<svg width="158" height="36" viewBox="0 0 158 36" fill="none" xmlns="http://www.w3.org/2000/svg">
<g id="Logo">
<g id="Meta">
<path d="M45.002 27.8176V9.53125H46.7315L53.6499 19.4967H52.6863L59.58 9.53125H61.3096V27.8176H59.3329V12.1822L59.9753 12.4276L53.2052 22.1722H53.1063L46.3609 12.4276L46.9786 12.1822V27.8176H45.002Z" fill="#141624"/>
<path d="M71.4138 28.1122C70.1784 28.1122 69.0582 27.8176 68.0534 27.2285C67.0651 26.6231 66.2827 25.7967 65.7061 24.7494C65.1296 23.7022 64.8413 22.5158 64.8413 21.1903C64.8413 19.8649 65.1214 18.6949 65.6814 17.6803C66.2415 16.6494 66.9992 15.8394 67.9546 15.2503C68.9265 14.6613 70.0136 14.3667 71.2161 14.3667C72.1715 14.3667 73.0198 14.5467 73.7611 14.9067C74.5188 15.2503 75.1612 15.7249 75.6884 16.3303C76.2155 16.9194 76.619 17.5903 76.8991 18.3431C77.1791 19.0794 77.3191 19.8403 77.3191 20.6258C77.3191 20.7894 77.3109 20.9776 77.2944 21.1903C77.2779 21.3867 77.2532 21.5913 77.2203 21.804H66.0273V20.0858H76.1578L75.2683 20.8222C75.4166 19.9222 75.3095 19.1203 74.9471 18.4167C74.6012 17.6967 74.0988 17.1322 73.4399 16.7231C72.781 16.2976 72.0397 16.0849 71.2161 16.0849C70.3925 16.0849 69.6265 16.2976 68.9182 16.7231C68.2264 17.1485 67.6828 17.7458 67.2875 18.5149C66.8921 19.2676 66.7356 20.1676 66.818 21.2149C66.7356 22.2622 66.9004 23.1785 67.3122 23.964C67.7405 24.7331 68.317 25.3303 69.0418 25.7558C69.783 26.1813 70.5737 26.394 71.4138 26.394C72.3857 26.394 73.201 26.1649 73.8599 25.7067C74.5188 25.2485 75.0542 24.6758 75.466 23.9885L77.0473 24.8231C76.7838 25.4122 76.3802 25.9603 75.8366 26.4676C75.293 26.9585 74.6424 27.3594 73.8846 27.6703C73.1434 27.9649 72.3198 28.1122 71.4138 28.1122Z" fill="#141624"/>
<path d="M85.6517 27.9649C84.4657 27.9649 83.5515 27.6213 82.909 26.934C82.2666 26.2467 81.9454 25.2649 81.9454 23.9885V16.5022H79.4993V14.6613H80.117C80.677 14.6613 81.1218 14.4813 81.4512 14.1213C81.7807 13.7449 81.9454 13.2785 81.9454 12.7222V11.6176H83.7985V14.6613H86.7141V16.5022H83.7985V23.9885C83.7985 24.4303 83.8644 24.8231 83.9962 25.1667C84.128 25.494 84.3504 25.7558 84.6633 25.9522C84.9928 26.1485 85.4293 26.2467 85.9729 26.2467C86.1047 26.2467 86.2611 26.2385 86.4423 26.2222C86.6235 26.2058 86.78 26.1894 86.9118 26.1731V27.8176C86.7141 27.8667 86.4918 27.8994 86.2447 27.9158C85.9976 27.9485 85.7999 27.9649 85.6517 27.9649Z" fill="#141624"/>
<path d="M93.7543 28.1122C92.9142 28.1122 92.1647 27.9567 91.5059 27.6458C90.847 27.3185 90.3281 26.8767 89.9492 26.3203C89.5704 25.764 89.3809 25.1258 89.3809 24.4058C89.3809 23.7185 89.5292 23.0967 89.8257 22.5403C90.1222 21.9676 90.5834 21.4849 91.2093 21.0922C91.8353 20.6994 92.6342 20.4213 93.6061 20.2576L98.7949 19.3985V21.0676L94.0508 21.8531C93.0954 22.0167 92.4036 22.3194 91.9753 22.7613C91.5635 23.2031 91.3576 23.7267 91.3576 24.3322C91.3576 24.9213 91.5882 25.4203 92.0494 25.8294C92.5271 26.2385 93.1366 26.4431 93.8779 26.4431C94.7838 26.4431 95.5745 26.2549 96.2499 25.8785C96.9252 25.4858 97.4524 24.9622 97.8312 24.3076C98.2101 23.6531 98.3995 22.9249 98.3995 22.1231V18.7849C98.3995 17.9994 98.1113 17.3613 97.5347 16.8703C96.9582 16.3794 96.2087 16.134 95.2863 16.134C94.4791 16.134 93.7708 16.3385 93.1613 16.7476C92.5518 17.1403 92.0989 17.6558 91.8024 18.294L90.1222 17.3858C90.3693 16.8294 90.7564 16.3222 91.2835 15.864C91.8271 15.4058 92.4448 15.0458 93.1366 14.784C93.8284 14.5058 94.545 14.3667 95.2863 14.3667C96.2581 14.3667 97.1147 14.5549 97.8559 14.9313C98.6137 15.3076 99.1984 15.8313 99.6102 16.5022C100.039 17.1567 100.253 17.9176 100.253 18.7849V27.8176H98.3995V25.1913L98.6713 25.4613C98.4407 25.9522 98.0783 26.4022 97.5841 26.8113C97.1064 27.204 96.5381 27.5231 95.8793 27.7685C95.2368 27.9976 94.5285 28.1122 93.7543 28.1122Z" fill="#141624"/>
</g>
<g id="Blog">
<path d="M105.406 27.8172V9.53087H113.189C114.458 9.53087 115.545 9.7436 116.451 10.1691C117.357 10.5945 118.049 11.2081 118.526 12.01C119.004 12.7954 119.243 13.7527 119.243 14.8818C119.243 15.6836 119.021 16.4527 118.576 17.1891C118.131 17.9091 117.398 18.5145 116.377 19.0054V17.14C117.349 17.5163 118.098 17.9663 118.625 18.49C119.152 19.0136 119.515 19.5863 119.712 20.2081C119.91 20.8136 120.009 21.4518 120.009 22.1227C120.009 23.9227 119.408 25.3218 118.205 26.32C117.003 27.3181 115.331 27.8172 113.189 27.8172H105.406ZM109.236 24.5036H113.634C114.408 24.5036 115.026 24.2827 115.487 23.8409C115.949 23.3991 116.179 22.8263 116.179 22.1227C116.179 21.4027 115.949 20.8218 115.487 20.38C115.026 19.9381 114.408 19.7172 113.634 19.7172H109.236V24.5036ZM109.236 16.4036H113.461C114.054 16.4036 114.524 16.24 114.87 15.9127C115.232 15.5691 115.413 15.1191 115.413 14.5627C115.413 14.0063 115.232 13.5645 114.87 13.2372C114.524 12.8936 114.054 12.7218 113.461 12.7218H109.236V16.4036Z" fill="#141624"/>
<path d="M122.194 27.8172V9.23633H125.9V27.8172H122.194Z" fill="#141624"/>
<path d="M135.308 28.1118C133.974 28.1118 132.755 27.8091 131.651 27.2036C130.564 26.5981 129.691 25.7718 129.032 24.7245C128.39 23.6609 128.069 22.4581 128.069 21.1163C128.069 19.7581 128.39 18.5554 129.032 17.5081C129.691 16.4609 130.564 15.6345 131.651 15.0291C132.755 14.4236 133.974 14.1209 135.308 14.1209C136.643 14.1209 137.853 14.4236 138.941 15.0291C140.028 15.6345 140.892 16.4609 141.535 17.5081C142.194 18.5554 142.523 19.7581 142.523 21.1163C142.523 22.4581 142.194 23.6609 141.535 24.7245C140.892 25.7718 140.028 26.5981 138.941 27.2036C137.853 27.8091 136.643 28.1118 135.308 28.1118ZM135.308 24.7981C135.984 24.7981 136.568 24.6427 137.063 24.3318C137.573 24.0209 137.969 23.5872 138.249 23.0309C138.545 22.4745 138.693 21.8363 138.693 21.1163C138.693 20.3963 138.545 19.7663 138.249 19.2263C137.969 18.67 137.573 18.2363 137.063 17.9254C136.568 17.5981 135.984 17.4345 135.308 17.4345C134.633 17.4345 134.04 17.5981 133.529 17.9254C133.019 18.2363 132.615 18.67 132.319 19.2263C132.039 19.7663 131.899 20.3963 131.899 21.1163C131.899 21.8363 132.039 22.4745 132.319 23.0309C132.615 23.5872 133.019 24.0209 133.529 24.3318C134.04 24.6427 134.633 24.7981 135.308 24.7981Z" fill="#141624"/>
<path d="M151.329 33.2172C150.291 33.2172 149.327 33.0454 148.438 32.7018C147.548 32.3581 146.782 31.8754 146.14 31.2536C145.514 30.6481 145.061 29.9281 144.781 29.0936L148.215 27.8909C148.396 28.5127 148.767 29.0036 149.327 29.3636C149.887 29.7236 150.554 29.9036 151.329 29.9036C151.938 29.9036 152.465 29.7891 152.91 29.56C153.355 29.3472 153.692 29.0281 153.923 28.6027C154.17 28.1772 154.294 27.6781 154.294 27.1054V24.0372L155.01 24.9209C154.549 25.6736 153.956 26.2381 153.231 26.6145C152.506 26.9745 151.658 27.1545 150.686 27.1545C149.434 27.1545 148.314 26.8763 147.326 26.32C146.337 25.7472 145.563 24.97 145.003 23.9881C144.443 22.99 144.163 21.8609 144.163 20.6009C144.163 19.3409 144.443 18.2281 145.003 17.2627C145.563 16.2809 146.329 15.5118 147.301 14.9554C148.273 14.3991 149.377 14.1209 150.612 14.1209C151.584 14.1209 152.432 14.3172 153.157 14.71C153.882 15.0863 154.499 15.6672 155.01 16.4527L154.541 17.3363V14.4154H158V27.1054C158 28.2836 157.712 29.3309 157.135 30.2472C156.558 31.18 155.768 31.9081 154.763 32.4318C153.775 32.9554 152.63 33.2172 151.329 33.2172ZM151.205 23.8163C151.831 23.8163 152.375 23.6854 152.836 23.4236C153.297 23.1618 153.651 22.7936 153.898 22.3191C154.162 21.8445 154.294 21.2881 154.294 20.65C154.294 20.0118 154.162 19.4554 153.898 18.9809C153.635 18.49 153.272 18.1136 152.811 17.8518C152.35 17.5736 151.814 17.4345 151.205 17.4345C150.579 17.4345 150.019 17.5736 149.525 17.8518C149.047 18.1136 148.668 18.49 148.388 18.9809C148.125 19.4554 147.993 20.0118 147.993 20.65C147.993 21.2718 148.125 21.82 148.388 22.2945C148.668 22.7691 149.047 23.1454 149.525 23.4236C150.019 23.6854 150.579 23.8163 151.205 23.8163Z" fill="#141624"/>
</g>
<g id="Union">
<path d="M18 36C27.9411 36 36 27.9411 36 18C36 8.05888 27.9411 0 18 0C8.05888 0 0 8.05888 0 18C0 22.152 1.40577 25.9756 3.76732 29.021L7.73554 14.0299C9.38672 7.52344 13.6758 4.15725 20.5616 4.15725H22.936C27.7785 4.15725 31.335 8.70307 30.1698 13.4033C29.9609 14.2463 29.5702 15.0334 29.0253 15.7097L27.0045 18.2174C26.486 18.8609 26.2968 19.7092 26.493 20.5121L27.109 23.0338C27.4278 24.339 27.3695 25.708 26.941 26.9814C25.4832 31.3132 21.4227 34.231 16.8521 34.231H10.2086C12.5662 35.3648 15.2089 36 18 36Z" fill="#141624"/>
<path fill-rule="evenodd" clip-rule="evenodd" d="M17.7 21.7592H14.1932C13.0747 21.7592 12.0968 22.5135 11.8129 23.5953L10.4373 28.8354H15.871C17.8811 28.8354 19.6384 27.4799 20.1487 25.5357L20.2666 25.0865C20.7082 23.4043 19.4392 21.7592 17.7 21.7592ZM16.6646 23.3514H14.759C14.1206 23.3514 13.5623 23.7814 13.3993 24.3988L12.6486 27.2432H15.6532C16.7647 27.2432 17.7364 26.4977 18.0186 25.4284L18.0838 25.1814C18.328 24.2562 17.6263 23.3514 16.6646 23.3514Z" fill="#141624"/>
<path fill-rule="evenodd" clip-rule="evenodd" d="M14.9971 11.7427C15.2811 10.6609 16.2589 9.90663 17.3774 9.90663H20.8843C22.6235 9.90663 23.8925 11.5517 23.4509 13.2339L23.333 13.6831C22.8227 15.6273 21.0654 16.9828 19.0553 16.9828H13.6216L14.9971 11.7427ZM16.5836 12.5462C16.7465 11.9289 17.3049 11.4988 17.9433 11.4988H19.8489C20.8106 11.4988 21.5123 12.4036 21.2681 13.3288L21.2029 13.5758C20.9207 14.6451 19.949 15.3907 18.8375 15.3907H15.8329L16.5836 12.5462Z" fill="#141624"/>
</g>
</g>
</svg>
